# xmcd CD Database Entry
#
# Track frame offsets:
# 150
# 12934
# 29062
# 46872
# 58845
# 77092
# 96090
# 118245
# 134317
# 155352
# 173325
# 204247
#
# Disc length: 2783 seconds
#
# Revision: 1
# Processed by: cddbd v1.4PL0 Copyright (c) Steve Scherf et al.
# Submitted via: tcd 2.0b
#
DISCID=960add0c
DTITLE=Ol' Dirty Bastard - The Dirty Story
DYEAR=1900
DGENRE=
TTITLE0=Shimmy Shimmy Ya
TTITLE1=Brooklyn Zoo
TTITLE2=Got Your Money
TTITLE3=Dirty Dancin'
TTITLE4=Raw Hide
TTITLE5=Proteck Ya Neck II The Zoo
TTITLE6=Recognize
TTITLE7=Cold Blooded
TTITLE8=Fantasy [Remix]
TTITLE9=I Can't Wait
TTITLE10=Good Morning Heartache
TTITLE11=
EXTD=
EXTT0=
EXTT1=
EXTT2=
EXTT3=
EXTT4=
EXTT5=
EXTT6=
EXTT7=
EXTT8=
EXTT9=
EXTT10=
EXTT11=
PLAYORDER=
